<svg xmlns="http://www.w3.org/2000/svg" viewBox="0 0 189 530" width="189" height="530">
  <style>
    .st0{fill:#5EBA7D;} .st1{fill:#C9CBCF;} .st2{fill:#EB3C0F;} .st3{fill:#858C93;} .st4{fill:#BBBFC3;} .st5{fill:#FFD83D;} .st6{fill:#EAC328;} .st7{fill:#D1A684;} .st8{fill:#B4B8BC;} .st9{fill:#FFCC01;} .st10{fill:#93999F;} .st11{fill:#FFFFFF;} .st12{fill:#DD3C4C;} .st13{fill:#EEC4C8;} .st14{fill:#FE6502;} .st15{fill:#6C737A;} .st16{fill:#C91D2E;} .st17{fill:#222426;} .st18{fill:#BCBBBB;}
  </style>
  <path d="M48 280.8v7.6l8.5 7.6L73 281.2V273l-16.5 14.9z" class="st0"/>
  <path d="M22.4 324v3.5l4.1 3.6 6.9-6.2v-3.8l-6.9 6.2z" class="st0"/>
  <path d="M8 280.8v7.6l8.6 7.6L33 281.2V273l-16.4 14.9z" class="st1"/>
  <path d="M45 191h29l-14.4-15z" class="st2"/>
  <path d="M5 191h29l-14.5-15z" class="st3"/>
  <path d="M59.6 243L74 228H45z" class="st2"/>
  <path d="M6.5 322.3l-6.5 7h13z" class="st2"/>
  <path d="M7.2 386.5l-7-6.5v13z" class="st3"/>
  <path d="M54.1 473.6l-7-6.4v13z" class="st3"/>
  <path d="M6.5 473.7l7 6.5v-13z" class="st3"/>
  <path d="M26.8 390l6.4-7h-13z" class="st3"/>
  <path d="M6.5 341.3l-6.5 7h13z" class="st4"/>
  <path d="M19.5 243L34 228H5z" class="st3"/>
  <path d="M19.5 120l2.9 9.2H32l-7.7 5.6 3 9.2-7.8-5.7-7.8 5.7 3-9.2-7.7-5.6h9.6z" class="st1"/>
  <path d="M59.6 120l2.9 9.2h9.6l-7.7 5.6 3 9.2-7.8-5.7-7.8 5.7 3-9.2-7.7-5.6h9.6z" class="st5"/>
  <path d="M59.6 123.3l2.2 6.9H69l-5.8 4.2 2.3 6.9-5.9-4.3-5.9 4.3 2.3-6.9-5.8-4.2h7.3l2.1-6.9zm0-3.3l-2.9 9.2h-9.6l7.7 5.6-3 9.2 7.8-5.7 7.8 5.7-3-9.2 7.7-5.6h-9.6l-2.9-9.2z" class="st6"/>
  <circle cx="65" cy="405" r="3" class="st7"/>
  <circle cx="85" cy="405" r="3" class="st8"/>
  <circle cx="105" cy="405" r="3" class="st9"/>
  <path d="M47.2 367h2v2h-2z" class="st10"/>
  <path d="M50.2 370h2v2h-2z" class="st10"/>
  <path d="M56.2 370h2v2h-2z" class="st10"/>
  <path d="M62.2 370h2v2h-2z" class="st10"/>
  <path d="M68.2 370h2v2h-2z" class="st10"/>
  <path d="M53.3 367h2v2h-2z" class="st10"/>
  <path d="M59.3 367h2v2h-2z" class="st10"/>
  <path d="M65.3 367h2v2h-2z" class="st10"/>
  <path d="M71.4 367h2v2h-2z" class="st10"/>
  <path d="M.2 400v31h3.4c.2-5.2 3.4-9.9 8.3-11.8V418c-3.1-2.1-3.9-6.3-1.8-9.4s6.3-3.9 9.4-1.8c3.1 2.1 3.9 6.3 1.8 9.4-.5.7-1.1 1.4-1.8 1.8v1.2c4.9 1.9 8.1 6.6 8.3 11.8h3.4v-31H.2z" class="st1"/>
  <path d="M3.7 431H28c-.2-5.2-3.4-9.9-8.3-11.8V418c3.1-2.1 3.9-6.3 1.8-9.4s-6.3-3.9-9.4-1.8c-3.1 2.1-3.9 6.3-1.8 9.4.5.7 1.1 1.4 1.8 1.8v1.2c-4.9 1.9-8.2 6.6-8.4 11.8z" class="st11"/>
  <path d="M60.3 340h1.9v14h-1.9z" class="st4"/>
  <path d="M63.2 341h10.1v8H63.2z" class="st1"/>
  <path d="M60.3 320.1h1.9v14h-1.9z" class="st12"/>
  <path d="M63.2 321.1h10.1v8H63.2z" class="st13"/>
  <path d="M80.3 320.1h14v14h-14z" class="st14"/>
  <path d="M83.5 329.5c-.8 0-1.4.6-1.4 1.4 0 .8.6 1.4 1.4 1.4s1.4-.6 1.4-1.4c0-.8-.6-1.4-1.4-1.4zm-1.4-4v2c2.6 0 4.8 2.1 4.8 4.8h2c.1-3.7-2.9-6.7-6.6-6.8h-.2zm0-3.6v2c4.6 0 8.4 3.8 8.4 8.4h2c0-5.7-4.7-10.4-10.4-10.4z" class="st11"/>
  <path d="M22.6 347.1l-.7 3.2 3.2-.7z" class="st15"/>
  <path d="M23.4301 346.39682l3.60621-3.60621 2.47485 2.47485-3.60621 3.60621z" class="st15"/>
  <path d="M29.1 341.3c-.4 0-.8.1-1.1.4l-.7.7 2.5 2.5.7-.7c.2-.3.4-.7.4-1.1 0-1-.8-1.8-1.8-1.8z" class="st15"/>
  <circle cx="107" cy="451.8" r="6.5" class="st16"/>
  <path d="M110.2 453.7l-1.9-1.9 1.9-1.9v-.3l-.9-.9c-.1-.1-.1-.1-.2 0h-.1l-1.9 1.9-1.9-1.9h-.3l-.9.9c-.1.1-.1.1 0 .2v.1l1.9 1.9-1.9 1.9v.3l.9.9c.1.1.1.1.2 0h.1l1.9-1.9 1.9 1.9h.3l.9-.9v-.3z" class="st11"/>
  <circle cx="47.2" cy="346.9" r="6.5" class="st16"/>
  <path d="M50.4 348.8l-1.9-1.9 1.9-1.9v-.3l-.9-.9c-.1-.1-.1-.1-.2 0h-.1l-1.9 1.9-1.9-1.9h-.3l-.9.9c-.1.1-.1.1 0 .2v.1l1.9 1.9-1.9 1.9v.3l.9.9c.1.1.1.1.2 0h.1l1.9-1.9 1.9 1.9h.3l.9-.9v-.3z" class="st11"/>
  <circle cx="47.2" cy="326.1" r="6.5" class="st1"/>
  <path d="M50.4 328.1l-1.9-1.9 1.9-1.9v-.3l-.9-.9c-.1-.1-.1-.1-.2 0h-.1l-2 1.8-1.9-1.9H45l-.9.9c-.1.1-.1.1 0 .2v.1l1.9 1.9-1.9 1.9v.3l.9.9c.1.1.1.1.2 0h.1l1.9-1.9 1.9 1.9h.3l.9-.9c.1 0 .1-.1.1-.2z" class="st11"/>
  <path d="M42.8 31.4l-2.2-.2c-1.7-.1-2.3-.8-2.3-2 0-1.4 1-2.2 3-2.2 1.3-.1 2.6.3 3.6 1.1l1.3-1.3c-1.4-1-3.1-1.5-4.8-1.4-2.9 0-4.9 1.5-4.9 3.9 0 2.2 1.4 3.4 4 3.6l2.2.2c1.6.1 2.2.8 2.2 2 0 1.6-1.4 2.4-3.6 2.4-1.6.1-3.1-.5-4.2-1.6l-1.3 1.3c1.5 1.4 3.5 2 5.5 1.9 3.2 0 5.5-1.5 5.5-4.1s-1.6-3.4-4-3.6zm16.8-6.1c-2.2 0-3.5.4-4.7 1.9l1.3 1.3c.8-1.1 2.1-1.7 3.4-1.5 2.5 0 3.4 1 3.4 2.9v1.3h-4c-3 0-4.6 1.5-4.6 3.9 0 1 .3 2 1 2.7.8.9 1.9 1.2 3.8 1.2 1.4.1 2.9-.4 3.9-1.4v1.3h2v-9.1c-.1-2.9-1.9-4.5-5.5-4.5zm3.4 8.9c.1.8-.1 1.7-.7 2.3-.8.7-1.9 1-3 .9-2.1 0-3.1-.7-3.1-2.3 0-1.6 1-2.4 3-2.4H63v1.5zm9.7-7.1c1.2 0 2.4.5 3.1 1.5l1.3-1.3c-1.1-1.3-2.7-2.1-4.4-2-3.4 0-5.9 2.3-5.9 6.9s2.6 6.9 5.9 6.9c1.7.1 3.3-.7 4.4-2l-1.3-1.3c-.7 1-1.9 1.5-3.1 1.5-1.2.1-2.4-.5-3.1-1.5-.7-1.1-1-2.3-.9-3.6-.1-1.3.2-2.5.9-3.6.7-1 1.9-1.6 3.1-1.5zm16.8-1.6h-2.4L81 31.4V19.5h-2v19.4h2V34l2.4-2.4 4.5 7.3h2.4l-5.6-8.6 4.8-4.8zm9.2-.7c-1.6-.1-3.2.5-4.3 1.7-1.3 1.3-1.6 2.9-1.6 5.4s.3 4.1 1.6 5.4c1.1 1.1 2.7 1.7 4.3 1.7 1.6.1 3.2-.5 4.3-1.7 1.3-1.3 1.6-2.9 1.6-5.4s-.3-4.1-1.6-5.4c-1.1-1.2-2.7-1.8-4.3-1.7zm1.7 10.5c-.9.8-2.3.8-3.2 0-.7-.7-.8-2-.8-3.4s.1-2.7.8-3.4c.9-.8 2.3-.8 3.2 0 .7.7.8 1.9.8 3.4s-.1 2.7-.8 3.4zM114 24.9l-2.8 8.6-2.8-8.6h-3.7l5.2 14h2.7l5.1-14H114zm9.6-.1c-3.6 0-6.1 2.6-6.1 7.1 0 5.7 3.2 7.2 6.5 7.2 2 .1 4-.7 5.3-2.2l-2.1-2.1c-.8.9-2 1.4-3.2 1.3-1.6.1-3-1.1-3.1-2.7V33h8.7v-1.6c.1-3.8-2.1-6.6-6-6.6zm-2.7 5.8c0-.5.1-1 .3-1.5.4-.9 1.3-1.4 2.3-1.4 1-.1 1.9.5 2.3 1.4.2.5.3 1 .3 1.5h-5.2zm13.9-4.3V25h-3.4v14h3.5v-8.4c-.1-1.3.8-2.4 2.1-2.6h.2c.7 0 1.4.3 1.8.8l2.6-2.6c-.8-.9-2.1-1.4-3.3-1.3-1.3-.1-2.6.4-3.5 1.4zm7.9-2.8v15.4h3.5v-11h2.6v-2.7h-2.6v-1.5c-.1-.6.3-1.2.9-1.3h1.6v-3h-2c-2.1-.1-3.9 1.6-4 3.8v.3zm20.4 1.3c-1.6-.1-3.2.5-4.3 1.7-1.3 1.3-1.6 2.9-1.6 5.4s.3 4.1 1.6 5.4c1.1 1.1 2.7 1.7 4.3 1.7 1.6.1 3.2-.5 4.3-1.7 1.3-1.3 1.6-2.9 1.6-5.4s-.3-4.1-1.6-5.4c-1.1-1.2-2.7-1.8-4.3-1.7zm1.7 10.5c-.9.8-2.3.8-3.2 0-.7-.7-.8-2-.8-3.4s.1-2.7.8-3.4c.9-.8 2.3-.8 3.2 0 .7.7.8 1.9.8 3.4s-.1 2.7-.8 3.4zm20.7-10.4l-2.3 8.6-2.9-8.6h-2.5l-2.8 8.7-2.3-8.6H169l4.3 14h2.9l2.9-8.8L182 39h3l4.3-14-3.8-.1zm-31.6 9.8V19.5h-3.5v15.4c-.1 2.1 1.5 3.9 3.6 4h2.5v-3h-1.3c-.6.1-1.1-.2-1.3-.8v-.4zM54 25.8h-3.7v-4.4h-2v13.9c0 2 1.1 3.6 3.4 3.6h1.4v-1.7h-1c-1.3 0-1.8-.7-1.8-2v-7.7h1.9l1.8-1.7z" class="st17"/>
  <path d="M26.5 42.2v-9.9h3.3v13.2H0V32.3h3.3v9.9z" class="st18"/>
  <path d="M7 31.4l16.2 3.4.7-3.2-16.2-3.4-.7 3.2zm2.1-7.8l15 7 1.4-3-15-7-1.4 3zm4.2-7.4L26 26.8l2.1-2.5-12.7-10.6-2.1 2.5zm8.2-7.8l-2.7 2 9.9 13.3 2.7-2-9.9-13.3zM6.6 38.9h16.6v-3.3H6.6v3.3z" class="st2"/>
  <path d="M33.9 518.6l-1.7-.2c-1.3-.1-1.9-.6-1.9-1.6 0-1.1.8-1.8 2.4-1.8 1.1 0 2.1.3 2.8.8l1-1c-1-.8-2.3-1.1-3.8-1.1-2.3 0-3.9 1.2-3.9 3.1 0 1.8 1.1 2.7 3.2 2.9l1.8.2c1.2.1 1.8.6 1.8 1.6 0 1.3-1.1 1.9-2.8 1.9-1.3 0-2.5-.3-3.3-1.2l-1 1c1.2 1.1 2.6 1.5 4.4 1.5 2.6 0 4.3-1.2 4.3-3.2-.2-2-1.5-2.7-3.3-2.9zm13.3-4.8c-1.7 0-2.8.3-3.7 1.5l1 1c.6-.9 1.3-1.2 2.7-1.2 1.9 0 2.7.8 2.7 2.3v1h-3.2c-2.4 0-3.7 1.2-3.7 3.1 0 .8.3 1.6.8 2.2.7.7 1.5 1 3 1 1.4 0 2.2-.3 3.1-1.1v1h1.6v-7.2c-.1-2.4-1.5-3.6-4.3-3.6zm2.7 7c0 .9-.2 1.5-.5 1.8-.7.6-1.5.7-2.4.7-1.7 0-2.4-.6-2.4-1.8 0-1.2.8-1.9 2.4-1.9h3l-.1 1.2zm7.6-5.6c1 0 1.6.3 2.4 1.2l1-1c-1.1-1.2-2-1.6-3.5-1.6-2.7 0-4.7 1.8-4.7 5.5 0 3.6 2 5.5 4.7 5.5 1.5 0 2.4-.4 3.5-1.6l-1.1-1c-.8.9-1.4 1.2-2.4 1.2s-1.9-.4-2.5-1.2c-.5-.7-.7-1.5-.7-2.9 0-1.3.2-2.2.7-2.9.7-.8 1.6-1.2 2.6-1.2zm13.4-1.3H69l-4.8 4.7v-9.5h-1.6v15.4h1.6v-3.9l1.9-1.9 3.6 5.8h1.9l-4.4-6.9 3.7-3.7zm7.3-.5c-1.6 0-2.7.6-3.4 1.4-1 1-1.3 2.3-1.3 4.3s.3 3.3 1.3 4.3c.7.7 1.8 1.4 3.4 1.4s2.8-.6 3.4-1.4c1-1 1.3-2.3 1.3-4.3s-.3-3.3-1.3-4.3c-.6-.8-1.7-1.4-3.4-1.4zm1.3 8.3c-.3.3-.7.5-1.3.5s-1-.2-1.3-.5c-.6-.6-.6-1.6-.6-2.7 0-1.2.1-2.1.6-2.7.3-.3.7-.5 1.3-.5s1 .2 1.3.5c.6.6.6 1.5.6 2.7.1 1.2 0 2.2-.6 2.7zm10.8-8.2l-2.2 6.9-2.3-6.9h-2.9l4.1 11.1h2.2l4.1-11.1h-3zm7.6-.1c-2.9 0-4.8 2-4.8 5.7 0 4.5 2.5 5.7 5.1 5.7 2 0 3.1-.6 4.2-1.7l-1.7-1.6c-.7.7-1.3 1-2.5 1-1.6 0-2.4-1-2.4-2.5h6.9v-1.2c0-3.2-1.7-5.4-4.8-5.4zm-2.1 4.6c0-.5.1-.8.3-1.2.3-.7.9-1.2 1.9-1.2.9 0 1.6.5 1.9 1.2.2.4.2.7.3 1.2h-4.4zm11-3.4v-1.1h-2.7v11.1h2.8v-6.7c0-1.4.9-2 1.8-2 .7 0 1 .2 1.5.7l2.1-2.1c-.8-.8-1.5-1-2.6-1-1.3-.1-2.3.4-2.9 1.1zm6.3-2.3v12.3h2.8v-8.8h2v-2.1h-2v-1.2c0-.6.3-1 1-1h1.1v-2.3h-1.6c-2.3 0-3.3 1.6-3.3 3.1zm16.2 1.1c-1.6 0-2.7.6-3.4 1.4-1 1-1.3 2.3-1.3 4.3s.3 3.3 1.3 4.3c.7.7 1.8 1.4 3.4 1.4 1.6 0 2.8-.6 3.4-1.4 1-1 1.3-2.3 1.3-4.3s-.3-3.3-1.3-4.3c-.6-.8-1.8-1.4-3.4-1.4zm1.3 8.3c-.3.3-.7.5-1.3.5s-1-.2-1.3-.5c-.6-.6-.6-1.6-.6-2.7 0-1.2.1-2.1.6-2.7.3-.3.7-.5 1.3-.5s1 .2 1.3.5c.6.6.6 1.5.6 2.7 0 1.2 0 2.2-.6 2.7zm16.5-8.2l-1.8 6.9-2.3-6.9h-2l-2.3 6.9-1.8-6.9H134l3.4 11.1h2.3l2.3-7 2.3 7h2.3l3.4-11.1h-2.9zm-25.1 7.7v-12.1h-2.8v12.3c0 1.6 1 3.2 3.2 3.2h1.6v-2.3h-1c-.7 0-1-.4-1-1.1zm-80.7-5.6l1.4-1.4h-3v-3.5h-1.6v11.1c0 1.6.9 2.9 2.7 2.9h1.1v-1.3h-.8c-1 0-1.5-.6-1.5-1.6v-6.1h1.7v-.1z" class="st17"/>
  <path d="M21 527.1v-7.8h2.8v10.5H0v-10.5h2.8v7.8z" class="st18"/>
  <path d="M5.5 518.6l13 2.7.5-2.6L6 516l-.5 2.6zm1.7-6.3l12 5.6 1.1-2.4-12-5.6-1.1 2.4zm3.4-5.9l10.2 8.5 1.7-2-10.2-8.5-1.7 2zm6.5-6.2l-2.1 1.6 7.9 10.6 2.1-1.6-7.9-10.6zM5.3 524.6h13.3v-2.7H5.3v2.7z" class="st2"/>
</svg>
